<svg xmlns="http://www.w3.org/2000/svg" width="48" height="48" viewBox="0 0 24 24" fill="currentColor">
  <path d="M12 2C6.48 2 2 6.6 2 12.26c0 4.5 2.87 8.32 6.84 9.67.5.1.68-.22.68-.49 0-.24-.01-.87-.01-1.71-2.78.62-3.37-1.37-3.37-1.37-.45-1.18-1.1-1.5-1.1-1.5-.9-.63.07-.62.07-.62 1 .07 1.53 1.06 1.53 1.06.89 1.55 2.34 1.1 2.91.84.09-.66.35-1.1.63-1.35-2.22-.26-4.56-1.14-4.56-5.08 0-1.12.39-2.04 1.03-2.75-.1-.26-.45-1.3.1-2.7 0 0 .84-.28 2.75 1.05a9.4 9.4 0 0 1 2.5-.35c.85 0 1.7.12 2.5.35 1.91-1.33 2.75-1.05 2.75-1.05.55 1.4.2 2.44.1 2.7.64.71 1.03 1.63 1.03 2.75 0 3.95-2.34 4.82-4.57 5.08.36.32.68.95.68 1.92 0 1.39-.01 2.51-.01 2.85 0 .27.18.59.69.49A10 10 0 0 0 22 12.26C22 6.6 17.52 2 12 2z"/>
</svg>
